<svg xmlns="http://www.w3.org/2000/svg" xmlns:xlink="http://www.w3.org/1999/xlink" xml:space="preserve" version="1.0" style="shape-rendering:geometricPrecision;text-rendering:geometricPrecision;image-rendering:optimizeQuality;" viewBox="0 0 10000 12500" x="0px" y="0px" fill-rule="evenodd" clip-rule="evenodd"><defs><style type="text/css">
   
    .fil0 {fill:black;fill-rule:nonzero}
   
  </style></defs><g><path class="fil0" d="M5795 4431c-74,-266 331,-378 404,-112 89,323 552,323 642,0 73,-266 478,-154 404,112 -203,733 -1248,733 -1450,0z"/><path class="fil0" d="M2753 4431c-74,-266 331,-378 404,-112 90,323 552,323 642,0 73,-266 478,-154 404,112 -202,733 -1248,733 -1450,0z"/><path class="fil0" d="M4233 6452c-197,194 -491,-106 -294,-299 589,-579 1531,-579 2120,0 197,193 -97,493 -294,299 -424,-416 -1108,-417 -1532,0z"/><path class="fil0" d="M4999 2000c2663,0 4005,3235 2120,5119 -1884,1885 -5119,543 -5119,-2120 0,-1656 1343,-2999 2999,-2999zm1823 1176c-1620,-1620 -4401,-467 -4401,1823 0,2290 2781,3443 4401,1823 1007,-1007 1007,-2639 0,-3646z"/></g><text x="0" y="10015" fill="#000000" font-size="5px" font-weight="bold" font-family="'Helvetica Neue', Helvetica, Arial-Unicode, Arial, Sans-serif">Created by fibo junior</text><text x="0" y="10020" fill="#000000" font-size="5px" font-weight="bold" font-family="'Helvetica Neue', Helvetica, Arial-Unicode, Arial, Sans-serif">from the Noun Project</text></svg>