<svg xmlns="http://www.w3.org/2000/svg" xmlns:xlink="http://www.w3.org/1999/xlink" version="1.1" x="0px" y="0px" viewBox="0 0 100 125" enable-background="new 0 0 100 100" xml:space="preserve"><path d="M20.294,63.043c-4.963-2.5-6.946-8.561-4.443-13.506c2.486-4.946,8.544-6.934,13.513-4.42  c4.954,2.517,6.927,8.561,4.433,13.505C31.287,63.567,25.232,65.56,20.294,63.043z"/><path d="M18.924,67.641h9.416h9.424l0.142-16.085c0.146-6.03,1.029-10.443,3.831-14.118c2.527-3.332,5.069-7.361,15.885-10.74  c16.124-5.049,28.912,3.304,30.445,4.263c4.949,3.111,6.452,9.643,3.351,14.605c-0.532,0.843-1.189,1.547-1.89,2.18  c-0.085,0.112-0.112,0.249-0.211,0.346l-17,18.569h20.768c3.117,0,5.648,2.525,5.648,5.64c0,3.13-2.531,5.656-5.648,5.656H59.481  c-2.242,0-4.268-1.325-5.174-3.377c-0.633-1.438-0.59-3.023-0.014-4.429c0.064-1.146,0.302-2.292,0.952-3.326l12.625-20.374  c-1.566-0.054-3.216,0.095-4.856,0.635c-4.786,1.529-8.203,4.717-8.21,4.717c0,0-0.58,0.565-0.862,0.858L48.42,73.737  c-0.043,0.179-0.152,0.305-0.208,0.466c-0.096,0.264-0.206,0.514-0.338,0.744c-0.199,0.377-0.425,0.705-0.697,1.01  c-0.172,0.193-0.322,0.386-0.517,0.554c-0.335,0.301-0.709,0.523-1.101,0.729c-0.202,0.111-0.375,0.234-0.587,0.316  c-0.634,0.246-1.304,0.4-2.014,0.4H28.34h-9.416c-3.115,0-5.646-1.903-5.646-5.021C13.279,69.818,15.81,67.641,18.924,67.641z"/><path d="M9.583,61.538l0.007,0.008c0,0-1.147,4.977-3.213,6.509c-2.073,1.54-4.025,0.704-4.906-0.484l-0.007-0.008  c-0.882-1.189-1.053-3.215,1.019-4.755C4.549,61.275,9.583,61.538,9.583,61.538z"/><path d="M11.06,54.304l-0.004,0.012c0,0-4.373,2.646-6.907,2.23c-2.546-0.414-3.31-2.397-3.073-3.856l0.003-0.014  c0.238-1.46,1.574-2.983,4.119-2.566C7.734,50.522,11.06,54.304,11.06,54.304z"/><text x="0" y="115" fill="#000000" font-size="5px" font-weight="bold" font-family="'Helvetica Neue', Helvetica, Arial-Unicode, Arial, Sans-serif">Created by Luis Prado</text><text x="0" y="120" fill="#000000" font-size="5px" font-weight="bold" font-family="'Helvetica Neue', Helvetica, Arial-Unicode, Arial, Sans-serif">from the Noun Project</text></svg>