<svg xmlns="http://www.w3.org/2000/svg" xmlns:xlink="http://www.w3.org/1999/xlink" version="1.1" x="0px" y="0px" viewBox="0 0 100 125" enable-background="new 0 0 100 100" xml:space="preserve"><path fill-rule="evenodd" clip-rule="evenodd" d="M78.1806641,31.7548828c-3.6933594,0-6.8378906-1.3144531-9.4326172-3.9433594  c-2.6298828-2.5957031-3.9433594-5.7402344-3.9433594-9.4335938c0-3.7285156,1.3134766-6.8886719,3.9433594-9.484375  c2.5947266-2.5957031,5.7392578-3.8925781,9.4326172-3.8925781c3.7265625,0,6.8886719,1.296875,9.484375,3.8925781  s3.8925781,5.7558594,3.8925781,9.484375c0,3.6933594-1.296875,6.8378906-3.8925781,9.4335938  C85.0693359,30.4404297,81.9072266,31.7548828,78.1806641,31.7548828z M87.4150391,48.1787109  c1.7636719,0.1328125,3.2441406,0.8808594,4.4433594,2.2460938c1.1640625,1.3300781,1.6796875,2.8945313,1.546875,4.6914063  c-0.8320313,10.4492188-5.0585938,19.484375-12.6796875,27.1054688  c-8.484375,8.5195313-18.7490234,12.7773438-30.7958984,12.7773438c-12.0126953,0-22.2446289-4.2578125-30.6972656-12.7773438  h-0.0493164c-7.6201172-7.6210938-11.8134766-16.65625-12.5786133-27.1054688  c-0.1660156-1.796875,0.3496094-3.3613281,1.5473633-4.6914063c1.1645508-1.3652344,2.628418-2.1132813,4.3925781-2.2460938  c1.796875-0.1660156,3.3774414,0.3496094,4.7416992,1.546875c1.3310547,1.1640625,2.0795898,2.6445313,2.2460938,4.4433594  c0.5322266,7.2871094,3.4770508,13.5761719,8.8344727,18.8671875v0.0507813  c5.956543,5.9570313,13.1445313,8.9335938,21.5629883,8.9335938c8.4521484,0,15.65625-2.9765625,21.6132813-8.9335938  l0.0498047-0.0507813c5.3242188-5.3242188,8.2851563-11.6289063,8.8847656-18.9179688  c0.1328125-1.7636719,0.8808594-3.2285156,2.2460938-4.3925781C84.0537109,48.5283203,85.6181641,48.0126953,87.4150391,48.1787109z   M12.2949219,27.8115234c-2.5957031-2.5957031-3.8935547-5.7402344-3.8935547-9.4335938  c0-3.7285156,1.2978516-6.8886719,3.8935547-9.484375c2.5952148-2.5957031,5.7568359-3.8925781,9.4833984-3.8925781  c3.6933594,0,6.8378906,1.296875,9.4335938,3.8925781c2.6289063,2.5957031,3.9433594,5.7558594,3.9433594,9.484375  c0,3.6933594-1.3144531,6.8378906-3.9433594,9.4335938c-2.5957031,2.6289063-5.7402344,3.9433594-9.4335938,3.9433594  C18.0517578,31.7548828,14.8901367,30.4404297,12.2949219,27.8115234z"/><text x="0" y="115" fill="#000000" font-size="5px" font-weight="bold" font-family="'Helvetica Neue', Helvetica, Arial-Unicode, Arial, Sans-serif">Created by Saeful Muslim</text><text x="0" y="120" fill="#000000" font-size="5px" font-weight="bold" font-family="'Helvetica Neue', Helvetica, Arial-Unicode, Arial, Sans-serif">from the Noun Project</text></svg>